# xmcd
# 
# Track frame offsets:
#	150
#	24945
#	42392
#	58285
#	76095
#	95770
#	113322
#	127612
#	138897
#	154850
#	174970
#	189202
#	205450
#	228070
#
# Disc length: 3337 seconds
#
# Revision: 1
# Processed by: cddbd v1.5.1PL0 Copyright (c) Steve Scherf et al.
# Submitted via: Audio-CD-Archiv 3.00.486
#
DISCID=a10d070e
DTITLE=Bradford, Bobby - No Saints Walkin' (1999)
DYEAR=1900
DGENRE=blues
TTITLE0=Hard Times
TTITLE1=Rush Hour Blues
TTITLE2=Steady Rolling Man
TTITLE3=Reconsider Baby
TTITLE4=Waiting For Your Call
TTITLE5=I'm Watching Out
TTITLE6=No Saints Walkin'
TTITLE7=She's My Baby
TTITLE8=Love Has Forgotten Me
TTITLE9=Mean Old World
TTITLE10=You Are The One
TTITLE11=This Is My Life
TTITLE12=I Want Your Love Again
TTITLE13=Samba Mamba
EXTD=
EXTT0=
EXTT1=
EXTT2=
EXTT3=
EXTT4=
EXTT5=
EXTT6=
EXTT7=
EXTT8=
EXTT9=
EXTT10=
EXTT11=
EXTT12=
EXTT13=
PLAYORDER=
